<svg viewBox="0 0 16 16" fill="none" xmlns="http://www.w3.org/2000/svg">
<path d="M6.00008 8.66658H10.0001M6.00008 11.3333H8.00008M2.66675 2.66659V13.3333C2.66675 13.6869 2.80722 14.026 3.05727 14.2761C3.30732 14.5261 3.64646 14.6666 4.00008 14.6666H12.0001C12.3537 14.6666 12.6928 14.5261 12.9429 14.2761C13.1929 14.026 13.3334 13.6869 13.3334 13.3333V5.56125C13.3334 5.38362 13.2979 5.20779 13.229 5.04408C13.16 4.88037 13.0591 4.73208 12.9321 4.60792L9.97208 1.71325C9.72299 1.46969 9.38846 1.3333 9.04008 1.33325H4.00008C3.64646 1.33325 3.30732 1.47373 3.05727 1.72378C2.80722 1.97382 2.66675 2.31296 2.66675 2.66659Z" stroke-linecap="round" stroke-linejoin="round"/>
<path d="M9.3335 1.33325V3.99992C9.3335 4.35354 9.47397 4.69268 9.72402 4.94273C9.97407 5.19278 10.3132 5.33325 10.6668 5.33325H13.3335" stroke-linejoin="round"/>
</svg>
