<svg viewBox="0 0 31 40" fill="none" xmlns="http://www.w3.org/2000/svg">
<path d="M29.7322 31.0017C29.0421 28.1351 28.989 28.1351 21.5569 28.082C17.6815 28.082 11.3111 27.8697 7.38271 27.6574C3.45429 27.445 0.109824 27.3389 0.00365003 27.3919C-0.0494367 27.4981 0.481431 28.4006 1.27773 29.4092C3.18885 31.9572 6.58641 34.3461 12.5321 37.425C19.1149 40.8224 21.1853 40.8224 26.4408 37.6373C30.4754 35.1423 30.6347 34.8238 29.7322 31.0017ZM24.105 36.5756C22.247 37.7966 20.442 38.7521 20.1766 38.7521C19.168 38.7521 7.59505 32.2758 6.32097 31.0017L4.9938 29.6746L15.0803 29.9931C27.8742 30.4178 27.5557 30.3647 27.5557 32.5943C27.5557 34.2399 27.2371 34.6115 24.105 36.5756Z" fill="#E5E5E5"/>
<path d="M27.5021 21.5528C26.7058 16.7752 26.2811 16.5098 15.2921 13.7494C9.93039 12.3692 5.47111 11.3605 5.36493 11.4136C4.83407 11.8914 8.17853 17.0937 10.1958 18.9517C14.0181 22.5084 18.7428 24.4725 26.1218 25.7465C28.3515 26.1181 28.2984 26.1712 27.5021 21.5528ZM23.3082 22.933C20.707 22.6676 16.4601 20.9689 13.5403 19.0578C11.1514 17.4653 9.66496 15.6073 10.2489 15.0234C10.4082 14.8641 13.3279 15.395 16.7255 16.1913C23.6798 17.7838 25.6441 19.0578 25.3255 21.659C25.1663 22.933 25.007 23.0923 23.3082 22.933Z" fill="#E5E5E5"/>
<path d="M24.636 10.7231C23.8397 8.0689 22.5656 5.9455 20.973 4.61838C19.8582 3.66286 12.426 4.11618e-08 11.5767 4.03384e-09C11.3643 -5.24814e-09 11.5236 1.0617 12.0014 2.38882C13.1162 5.73316 17.3631 10.2454 20.973 11.9441C24.9545 13.8021 25.4854 13.6428 24.636 10.7231ZM19.9113 8.81209C18.3187 7.80347 15.8767 5.2554 15.8767 4.61838C15.8767 3.76902 20.3891 6.68869 21.0261 7.96273C21.8755 9.66144 21.557 9.92687 19.9113 8.81209Z" fill="#E5E5E5"/>
</svg>
